<svg width="121" height="25" viewBox="0 0 121 25" fill="none" xmlns="http://www.w3.org/2000/svg">
<path d="M3.6 19V17.992H4.152C4.68 17.992 5.136 17.904 5.52 17.728C5.92 17.536 6.12 17.088 6.12 16.384V3.064H3.816C3.112 3.064 2.624 3.264 2.352 3.664C2.08 4.048 1.912 4.504 1.848 5.032L1.728 6.064H0.48L0.6 1.864H14.112L14.232 6.064H12.984L12.864 5.032C12.8 4.504 12.632 4.048 12.36 3.664C12.088 3.264 11.592 3.064 10.872 3.064H8.544V16.264C8.544 17.016 8.736 17.496 9.12 17.704C9.504 17.896 9.968 17.992 10.512 17.992H11.064V19H3.6ZM18.5107 19V17.992H18.5828C19.1268 17.992 19.5908 17.896 19.9748 17.704C20.3588 17.496 20.5508 17.016 20.5508 16.264V8.776C20.5508 8.072 20.3508 7.624 19.9508 7.432C19.5668 7.24 19.1108 7.144 18.5828 7.144H18.5107V6.136H22.2068L22.6628 8.512H22.7828C22.9908 8.032 23.2148 7.592 23.4548 7.192C23.6948 6.792 24.0148 6.48 24.4148 6.256C24.8148 6.016 25.3668 5.896 26.0708 5.896C26.9508 5.896 27.5988 6.048 28.0148 6.352C28.4468 6.656 28.6628 7.088 28.6628 7.648C28.6628 8.144 28.4868 8.552 28.1348 8.872C27.7988 9.192 27.2308 9.352 26.4308 9.352C26.4308 8.696 26.3348 8.224 26.1428 7.936C25.9508 7.632 25.6228 7.48 25.1588 7.48C24.7108 7.48 24.3348 7.656 24.0308 8.008C23.7268 8.36 23.4868 8.808 23.3108 9.352C23.1348 9.896 23.0068 10.464 22.9268 11.056C22.8468 11.632 22.8068 12.152 22.8068 12.616V16.384C22.8068 17.088 22.9988 17.536 23.3828 17.728C23.7828 17.904 24.2468 17.992 24.7747 17.992H25.4468V19H18.5107ZM36.4669 19.24C35.3949 19.24 34.5069 18.928 33.8029 18.304C33.0989 17.68 32.7469 16.712 32.7469 15.4C32.7469 14.12 33.1949 13.176 34.0909 12.568C35.0029 11.96 36.3789 11.624 38.2189 11.56L40.2109 11.488V10.048C40.2109 9.472 40.1629 8.968 40.0669 8.536C39.9709 8.088 39.7629 7.736 39.4429 7.48C39.1229 7.224 38.6349 7.096 37.9789 7.096C37.3709 7.096 36.9069 7.208 36.5869 7.432C36.2669 7.656 36.0509 7.968 35.9389 8.368C35.8429 8.752 35.7949 9.2 35.7949 9.712C35.1229 9.712 34.6109 9.6 34.2589 9.376C33.9229 9.136 33.7549 8.744 33.7549 8.2C33.7549 7.64 33.9469 7.192 34.3309 6.856C34.7309 6.52 35.2589 6.28 35.9149 6.136C36.5709 5.976 37.2909 5.896 38.0749 5.896C39.5469 5.896 40.6429 6.208 41.3629 6.832C42.0989 7.456 42.4669 8.528 42.4669 10.048V16.264C42.4669 16.936 42.5789 17.392 42.8029 17.632C43.0269 17.872 43.4109 17.992 43.9549 17.992H44.0269V19H40.7869L40.4029 16.936H40.2109C39.8749 17.384 39.5469 17.784 39.2269 18.136C38.9069 18.472 38.5309 18.744 38.0989 18.952C37.6829 19.144 37.1389 19.24 36.4669 19.24ZM37.0189 17.752C37.9949 17.752 38.7709 17.456 39.3469 16.864C39.9229 16.256 40.2109 15.44 40.2109 14.416V12.472L38.6749 12.544C37.3149 12.608 36.3709 12.888 35.8429 13.384C35.3309 13.864 35.0749 14.576 35.0749 15.52C35.0749 17.008 35.7229 17.752 37.0189 17.752ZM48.7423 19V17.992H48.9343C49.4783 17.992 49.9423 17.896 50.3263 17.704C50.7103 17.496 50.9023 17.016 50.9023 16.264V8.776C50.9023 8.072 50.7103 7.624 50.3263 7.432C49.9583 7.24 49.5103 7.144 48.9823 7.144H48.8623V6.136H52.7503L53.0623 8.08H53.1823C53.6783 7.184 54.2303 6.6 54.8383 6.328C55.4623 6.04 56.1583 5.896 56.9263 5.896C58.1903 5.896 59.1743 6.272 59.8783 7.024C60.5983 7.76 60.9583 8.952 60.9583 10.6V16.264C60.9583 17.016 61.1183 17.496 61.4383 17.704C61.7743 17.896 62.2143 17.992 62.7583 17.992H62.8783V19H58.7023V10.72C58.7023 9.68 58.5023 8.872 58.1023 8.296C57.7183 7.72 57.0383 7.432 56.0623 7.432C55.3423 7.432 54.7663 7.616 54.3343 7.984C53.9183 8.336 53.6143 8.808 53.4223 9.4C53.2463 9.992 53.1583 10.632 53.1583 11.32V16.384C53.1583 17.088 53.3423 17.536 53.7103 17.728C54.0943 17.904 54.5503 17.992 55.0783 17.992H55.1983V19H48.7423ZM73.6671 24.76V23.752H74.4591C75.0031 23.752 75.4671 23.648 75.8511 23.44C76.2351 23.248 76.4271 22.776 76.4271 22.024V19.96C76.4271 19.704 76.4271 19.384 76.4271 19C76.4431 18.6 76.4591 18.2 76.4751 17.8C76.4911 17.4 76.5071 17.08 76.5231 16.84H76.4271C76.0751 17.576 75.6111 18.16 75.0351 18.592C74.4591 19.024 73.6991 19.24 72.7551 19.24C71.1711 19.24 69.9551 18.712 69.1071 17.656C68.2751 16.584 67.8591 14.896 67.8591 12.592C67.8591 10.272 68.2751 8.576 69.1071 7.504C69.9551 6.432 71.1711 5.896 72.7551 5.896C73.6831 5.896 74.4351 6.096 75.0111 6.496C75.6031 6.88 76.0751 7.384 76.4271 8.008H76.5711L77.0031 6.136H80.8431V7.144H80.6511C80.1071 7.144 79.6431 7.248 79.2591 7.456C78.8751 7.648 78.6831 8.12 78.6831 8.872V22.12C78.6831 22.824 78.8751 23.272 79.2591 23.464C79.6591 23.656 80.1231 23.752 80.6511 23.752H80.8431V24.76H73.6671ZM73.1631 17.704C74.4111 17.704 75.2671 17.288 75.7311 16.456C76.1951 15.608 76.4271 14.32 76.4271 12.592C76.4271 10.928 76.1951 9.656 75.7311 8.776C75.2671 7.88 74.4031 7.432 73.1391 7.432C72.0831 7.432 71.3231 7.88 70.8591 8.776C70.4111 9.656 70.1871 10.936 70.1871 12.616C70.1871 14.312 70.4111 15.584 70.8591 16.432C71.3231 17.28 72.0911 17.704 73.1631 17.704ZM90.8333 19.24C89.5693 19.24 88.5933 18.872 87.9053 18.136C87.2173 17.384 86.8733 16.184 86.8733 14.536V8.776C86.8733 8.072 86.6733 7.624 86.2733 7.432C85.8893 7.24 85.4333 7.144 84.9053 7.144H84.8333V6.136H89.1293V14.416C89.1293 15.456 89.3053 16.264 89.6573 16.84C90.0093 17.416 90.6733 17.704 91.6493 17.704C92.7053 17.704 93.4733 17.352 93.9533 16.648C94.4333 15.928 94.6733 14.984 94.6733 13.816V8.872C94.6733 8.12 94.4813 7.648 94.0973 7.456C93.7133 7.248 93.2493 7.144 92.7053 7.144H92.6333V6.136H96.9293V16.384C96.9293 17.088 97.1213 17.536 97.5052 17.728C97.9053 17.904 98.3693 17.992 98.8973 17.992H98.9693V19H95.1533L94.8413 17.056H94.7213C94.2253 17.952 93.6493 18.544 92.9933 18.832C92.3373 19.104 91.6173 19.24 90.8333 19.24ZM106.38 3.736C105.996 3.736 105.668 3.624 105.396 3.4C105.14 3.176 105.012 2.792 105.012 2.248C105.012 1.688 105.14 1.304 105.396 1.096C105.668 0.871999 105.996 0.759999 106.38 0.759999C106.748 0.759999 107.068 0.871999 107.34 1.096C107.612 1.304 107.748 1.688 107.748 2.248C107.748 2.792 107.612 3.176 107.34 3.4C107.068 3.624 106.748 3.736 106.38 3.736ZM103.068 19V17.992H103.38C103.908 17.992 104.364 17.904 104.748 17.728C105.148 17.536 105.348 17.088 105.348 16.384V8.776C105.348 8.072 105.148 7.624 104.748 7.432C104.364 7.24 103.908 7.144 103.38 7.144H103.308V6.136H107.604V16.264C107.604 17.016 107.796 17.496 108.18 17.704C108.564 17.896 109.028 17.992 109.572 17.992H109.884V19H103.068ZM113.515 19V17.992H113.827C114.371 17.992 114.835 17.896 115.219 17.704C115.603 17.496 115.795 17.016 115.795 16.264V3.4C115.795 2.696 115.595 2.248 115.195 2.056C114.811 1.864 114.355 1.768 113.827 1.768H113.515V0.759999H118.051V16.264C118.051 17.016 118.243 17.496 118.627 17.704C119.011 17.896 119.475 17.992 120.019 17.992H120.331V19H113.515Z" fill="black"/>
</svg>
